<svg version="2" xmlns="http://www.w3.org/2000/svg" width="5000" height="3000">
	<rect fill="#F0F0F0" x="0" y="0" width="5000" height="200"/>
	<rect fill="#E0E0E0" x="0" y="200" width="5000" height="200"/>
	<rect fill="#D0D0D0" x="0" y="400" width="5000" height="200"/>
	<rect fill="#C0C0C0" x="0" y="600" width="5000" height="200"/>
	<rect fill="#B0B0B0" x="0" y="800" width="5000" height="200"/>
	<rect fill="#A0A0A0" x="0" y="1000" width="5000" height="200"/>
	<rect fill="#909090" x="0" y="1200" width="5000" height="200"/>
	<rect fill="#808080" x="0" y="1400" width="5000" height="200"/>
	<rect fill="#707070" x="0" y="1600" width="5000" height="200"/>
	<rect fill="#606060" x="0" y="1800" width="5000" height="200"/>
	<rect fill="#505050" x="0" y="2000" width="5000" height="200"/>
	<rect fill="#404040" x="0" y="2200" width="5000" height="200"/>
	<rect fill="#303030" x="0" y="2400" width="5000" height="200"/>
	<rect fill="#202020" x="0" y="2600" width="5000" height="200"/>
	<rect fill="#101010" x="0" y="2800" width="5000" height="200"/>
</svg>
